%
M48
M72
T01C0.0118
T02C0.0138
T03C0.0236
T04C0.0276
T05C0.0315
T06C0.0320
T07C0.0360
T08C0.0394
T09C0.0400
T10C0.0440
T11C0.1102
T12C0.1180
T13C0.1260
%
T01
X1831Y11824
X2520Y11824
X3751Y12365
X3997Y13497
X3997Y14531
X4735Y15712
X4341Y16696
X3505Y16745
X2717Y16253
X1881Y16844
X2816Y17532
X3013Y18664
X3948Y17828
X4341Y19403
X4538Y20092
X5227Y19944
X5719Y19058
X5965Y19796
X6211Y20633
X6900Y20534
X6851Y21469
X7146Y22897
X7196Y23290
X7196Y23684
X7589Y22749
X8081Y22847
X8081Y23192
X8081Y23684
X8574Y22651
X8081Y22257
X9017Y21716
X9361Y21716
X9361Y22700
X9558Y23044
X9017Y22995
X9066Y23684
X9558Y23635
X10198Y23192
X10296Y23684
X10591Y24176
X10985Y24176
X10936Y24619
X11083Y25013
X11428Y24816
X10591Y24914
X10198Y24619
X10591Y25505
X10247Y25751
X11723Y27523
X11871Y29590
X12117Y30574
X12904Y33182
X13544Y31214
X14971Y28802
X14774Y28458
X14479Y26538
X14676Y26342
X13938Y25013
X12757Y22651
X12461Y22651
X12166Y22651
X11822Y22651
X11477Y22651
X11329Y22995
X11329Y23389
X10837Y23290
X10936Y22749
X10641Y22503
X10001Y22700
X10148Y21716
X9853Y21716
X10444Y21716
X10887Y21666
X11329Y21765
X11772Y21765
X12117Y21765
X12265Y21420
X12511Y21765
X12461Y22208
X12166Y22208
X11822Y22208
X11477Y22208
X11133Y22257
X12068Y23832
X12068Y24225
X12757Y22208
X14233Y21912
X14282Y21469
X14627Y21568
X14873Y21322
X14578Y21223
X14578Y19821
X14578Y19550
X13790Y19009
X12215Y19747
X12018Y19550
X10936Y17139
X10641Y16942
X10616Y17336
X10542Y17631
X10542Y17926
X10099Y17779
X10050Y17237
X10247Y16893
X10001Y16302
X9558Y16351
X9558Y16056
X9115Y15908
X8672Y15908
X8426Y16105
X8426Y16401
X8426Y16696
X8426Y16991
X8426Y17286
X8426Y17582
X8820Y17926
X9263Y17926
X9558Y17631
X9558Y17286
X9558Y16991
X9558Y16647
X10837Y15564
X11280Y15761
X11576Y16302
X13101Y11922
X13003Y11676
X13052Y10347
X11822Y9019
X8524Y12562
X8524Y13497
X7589Y13399
X7835Y14334
X8574Y14531
X8032Y16007
X7343Y16548
X6704Y16401
X6261Y15810
X5867Y16401
X5375Y17680
X6261Y18025
X6261Y18320
X6261Y18615
X6457Y18812
X6753Y18812
X7048Y18812
X7392Y18615
X7392Y18320
X7392Y18025
X8131Y18812
X7442Y19599
X6851Y14334
X6457Y13202
X6950Y12365
X5719Y14284
X4932Y13054
X2274Y13842
X1979Y15416
X1831Y18271
X2274Y20534
X2865Y20928
X3702Y21076
X3357Y22060
X3357Y23586
X3751Y23536
X4095Y23782
X4194Y25702
X2520Y25160
X2668Y23782
X2324Y23782
X2274Y22158
X1881Y27129
X1831Y27670
X2373Y27769
X2373Y28310
X1831Y28310
X1831Y29097
X2471Y29147
X2422Y30377
X2471Y30820
X2471Y31361
X2471Y31656
X2471Y31952
X2767Y32444
X1831Y32493
X1881Y32887
X2225Y34708
X2914Y34905
X3554Y34412
X4144Y33920
X4981Y33822
X5719Y33723
X6162Y33871
X6457Y33871
X6753Y33871
X7516Y33994
X7811Y33994
X8081Y33994
X8352Y33994
X8352Y33699
X8081Y33699
X7811Y33699
X7811Y33428
X8081Y33428
X8081Y33157
X7811Y33157
X7516Y33157
X7516Y33428
X7516Y33699
X8352Y33428
X8352Y33157
X9017Y32985
X9755Y33231
X9952Y33428
X9902Y32149
X9902Y31509
X9361Y31509
X8401Y31263
X8131Y31263
X9115Y34806
X9361Y35101
X9656Y35101
X9902Y36381
X8032Y35987
X7196Y36332
X7196Y35347
X6359Y34658
X5916Y35347
X5375Y36135
X6457Y36332
X5276Y34560
X3111Y35790
X3259Y36233
X2274Y36036
X1733Y36086
X1831Y30672
X1782Y29983
X15365Y10397
X15660Y11627
X15611Y12365
X16448Y11971
X16743Y11676
X16398Y11233
X16743Y10938
X16546Y10249
X16792Y10003
X17530Y10200
X17530Y10987
X17530Y11775
X17530Y12513
X17924Y13448
X17530Y13546
X16792Y13251
X16546Y12759
X16743Y12464
X18121Y11922
X18416Y11578
X18072Y11184
X18367Y10840
X18072Y10347
X18416Y10003
X18072Y9609
X18367Y9314
X17727Y9117
X17481Y9363
X16694Y8969
X17579Y6952
X18416Y8379
X18957Y8674
X19253Y8428
X19794Y8674
X20089Y8428
X20680Y8527
X21615Y8428
X22058Y8822
X21467Y9462
X20581Y10298
X20139Y9905
X19942Y10101
X19843Y9412
X19253Y9216
X18957Y9511
X19253Y9954
X18957Y10249
X19204Y10840
X18957Y11036
X19253Y11627
X19991Y11922
X19991Y12316
X19843Y13103
X19892Y13694
X20286Y13645
X20778Y13054
X20877Y12316
X20926Y11578
X21467Y11725
X21763Y12464
X22304Y12513
X22894Y12759
X23091Y13448
X23042Y11725
X22353Y11578
X21812Y10643
X23042Y9314
X21221Y6804
X18810Y6263
X19942Y11036
X19007Y12414
X19253Y12660
X18957Y13153
X18268Y13005
X18367Y12611
X18367Y13940
X17186Y15712
X16398Y17090
X15808Y16204
X15562Y16302
X15660Y15121
X18908Y21666
X19597Y21765
X19843Y22552
X19499Y23438
X18859Y22749
X18219Y22060
X20286Y21076
X21172Y21912
X20680Y22897
X20828Y23586
X20729Y24619
X20957Y26377
X23288Y27080
X23288Y28753
X23288Y30918
X23288Y32345
X23288Y33871
X20483Y29639
X19204Y28704
X18908Y28802
X19204Y28359
X17776Y27670
X17530Y26145
X17333Y25899
X16103Y24767
X15857Y30574
X16841Y31214
X16546Y33231
X18810Y34117
X18761Y34560
X19548Y34216
X23150Y40550
X23150Y41239
X21772Y41338
X20985Y42223
X20985Y43208
X21576Y43208
X20690Y44094
X19607Y44094
X18328Y45275
X19213Y41731
X22166Y44487
X23642Y45275
X23150Y50038
X23150Y50727
X21772Y50826
X20985Y51712
X20985Y52696
X21576Y52696
X20690Y53582
X19607Y53582
X18328Y54763
X19213Y51219
X22166Y53975
X23642Y54763
X17599Y63672
X16910Y63672
X16812Y62294
X15926Y61507
X14942Y61507
X14942Y62097
X14056Y61212
X14056Y60129
X12875Y58849
X13662Y62688
X12875Y64164
X16418Y59735
X8150Y63672
X7461Y63672
X7363Y62294
X6477Y61507
X5493Y61507
X5493Y62097
X4607Y61212
X4607Y60129
X3426Y58849
X4213Y62688
X3426Y64164
X6969Y59735
X23288Y24767
X23239Y22601
X23239Y21076
X21763Y21174
X21910Y22700
X23190Y15564
X21517Y13054
X32914Y10460
X35079Y7704
X35867Y3914
X35867Y17300
X35079Y21090
X32914Y23845
X33225Y31916
X34702Y32704
X35292Y33983
X35883Y33983
X35883Y34968
X35095Y35853
X33717Y35952
X33717Y36641
X36178Y33097
X37261Y33097
X38540Y31916
X37654Y35460
T02
X15335Y48403
X15237Y49781
X14892Y51060
X13761Y52094
X12826Y53275
X12038Y52487
X11546Y53767
X11300Y55391
X10857Y56129
X9085Y55391
X8938Y56178
X7265Y55981
X6674Y55292
X7117Y54800
X7068Y54406
X7117Y53914
X6625Y52733
X6083Y52586
X5050Y52487
X4804Y51847
X4755Y51355
X4755Y50863
X4853Y50322
X4312Y50519
X3967Y50223
X3131Y50223
X2294Y49633
X3180Y48796
X4066Y47517
X3229Y46975
X2245Y47123
X2392Y45844
X2048Y44416
X3672Y44121
X3672Y45401
X4902Y45204
X5001Y44564
X4804Y44121
X5985Y46483
X6428Y46582
X6674Y46237
X6576Y45844
X7166Y45401
X7166Y44810
X6231Y47714
X5788Y47763
X5837Y48452
X6034Y48796
X4312Y51749
X3721Y51946
X3131Y51946
X2343Y50962
X2392Y53471
X3377Y53619
X4066Y55489
X5641Y54948
X5936Y55046
X5837Y54406
X5887Y53865
X8692Y52684
X8938Y52487
X9282Y52487
X9528Y52733
X9528Y51405
X9233Y51405
X8938Y51405
X8642Y51405
X8889Y51109
X9233Y51109
X9479Y50863
X8692Y50814
X10857Y47615
X11595Y46483
X10463Y45745
X10267Y45450
X9971Y45647
X9971Y45253
X10267Y45056
X9971Y44859
X10267Y44662
X9971Y44466
X10267Y44269
X9971Y44072
X10857Y44613
X12087Y44564
X12481Y42989
X13465Y44564
X12973Y46336
X14056Y46975
X14991Y46877
X15089Y45450
X15089Y44170
X13121Y48698
X11891Y48649
X11644Y50716
X13465Y50519
X14499Y53422
X15237Y52881
X14204Y56129
X13022Y55292
T03
X25263Y34983
X25816Y34180
X26119Y35521
X24869Y33308
X26119Y32521
X27263Y31914
X28119Y31521
X29619Y30521
X30619Y29521
X27869Y28271
X27513Y29021
X26119Y26861
X25459Y27521
X25066Y26468
X27621Y22468
X27977Y21718
X29371Y23877
X30030Y23218
X30424Y24271
X28227Y18824
X27371Y19218
X25871Y20218
X24871Y21218
X29371Y18218
X29674Y16558
X30227Y15755
X29371Y15218
X30424Y12979
X30030Y11926
X29371Y12586
X27977Y10426
X27621Y11176
X25871Y8926
X24871Y9926
X27371Y7926
X28227Y7532
X29371Y6926
X30621Y6139
X29674Y5267
X30227Y4464
X29371Y3926
X30621Y17430
X28658Y40019
X28658Y40806
X28855Y41790
X28068Y42184
X28855Y42971
X29446Y43562
X30627Y44940
X30036Y46712
X29249Y46712
X28658Y45924
X28461Y46712
X27674Y46712
X27674Y47499
X27674Y48286
X26887Y48286
X26887Y47499
X26887Y46712
X26887Y45924
X26887Y45137
X26887Y44349
X26887Y43562
X26887Y42775
X26887Y41987
X27871Y40806
X27871Y40019
X31020Y42971
X31611Y44546
X32595Y42775
X32989Y41594
X33186Y44546
X33776Y45334
X34367Y44546
X34957Y43168
X35548Y45531
X36139Y46712
X37123Y49074
X37910Y49074
X37524Y54601
X37524Y55389
X37524Y56176
X36737Y56176
X36737Y55389
X36737Y56964
X37524Y56964
X37524Y57751
X37524Y58538
X37524Y59326
X37524Y60113
X37524Y60901
X37524Y61688
X36540Y62869
X36540Y63656
X35753Y63656
X35753Y62869
X35556Y61885
X36343Y61491
X35556Y60704
X34965Y60113
X33784Y58735
X32800Y59129
X33391Y60704
X31816Y60901
X31422Y62082
X31225Y59129
X30635Y58342
X30044Y59129
X29454Y60507
X27879Y62869
X27879Y63656
X26304Y62082
X28863Y58145
X28272Y56964
X27288Y54601
X26501Y54601
X26887Y49074
X30627Y49074
X30627Y49861
X30627Y50649
X30627Y48286
X32989Y45531
X33776Y47696
X33776Y49074
X33776Y49861
X33776Y50649
X33784Y53027
X33784Y53814
X33784Y54601
X33784Y55389
X34375Y56964
X35162Y56964
X35950Y56964
X35753Y57751
X31422Y58145
X30635Y55979
X30635Y54601
X30635Y53814
X30635Y53027
X36532Y40806
X36532Y40019
X38107Y41594
T04
X37064Y36641
X36276Y36641
X35489Y36641
X34702Y36641
X34702Y31916
X35489Y31916
X36276Y31916
X37064Y31916
X22166Y40550
X21379Y40550
X20591Y40550
X19804Y40550
X19804Y45275
X20591Y45275
X21379Y45275
X22166Y45275
X22166Y50038
X21379Y50038
X20591Y50038
X19804Y50038
X19804Y54763
X20591Y54763
X21379Y54763
X22166Y54763
X17599Y60326
X17599Y61113
X17599Y61901
X17599Y62688
X12875Y62688
X12875Y61901
X12875Y61113
X12875Y60326
X8150Y60326
X8150Y61113
X8150Y61901
X8150Y62688
X3426Y62688
X3426Y61901
X3426Y61113
X3426Y60326
T05
X7627Y39928
X8414Y39928
X9202Y39928
X9989Y39928
X27950Y43011
X27950Y43798
X27950Y44586
X27950Y45373
X36335Y45255
X36335Y44468
X36335Y43680
X36335Y42893
X36461Y58302
X36461Y59090
X36461Y59877
X36461Y60664
X28076Y60782
X28076Y59995
X28076Y59208
X28076Y58420
T06
X28969Y54257
X28969Y53257
X28954Y50418
X28954Y49418
X32198Y49418
X32198Y50418
X32213Y53257
X32213Y54257
X35457Y54257
X35457Y53257
X35442Y50418
X35442Y49418
X32723Y35263
X32723Y34279
X32723Y33295
X29800Y33021
X29013Y33021
X28225Y33021
X27438Y33021
X27438Y35021
X28225Y35021
X29013Y35021
X29800Y35021
X25619Y31202
X25619Y30414
X25619Y29627
X25619Y28840
X27438Y27021
X28225Y27021
X29013Y27021
X29800Y27021
X28052Y23718
X27265Y23718
X26477Y23718
X25690Y23718
X25690Y17718
X26477Y17718
X27265Y17718
X28052Y17718
X28052Y15718
X27265Y15718
X26477Y15718
X25690Y15718
X25690Y12426
X26477Y12426
X27265Y12426
X28052Y12426
X29871Y10607
X29871Y9820
X29871Y9032
X29871Y8245
X28052Y6426
X27265Y6426
X26477Y6426
X25690Y6426
X25690Y4426
X26477Y4426
X27265Y4426
X28052Y4426
X22648Y7788
X21861Y7788
X21074Y7788
X20286Y7788
X19499Y7788
X18711Y7788
X17924Y7788
X17137Y7788
X17137Y14678
X17924Y14678
X18711Y14678
X19499Y14678
X20286Y14678
X21074Y14678
X21861Y14678
X22648Y14678
X29871Y19536
X29871Y20324
X29871Y21111
X29871Y21899
X32816Y26889
X32816Y27889
X32816Y14503
X32816Y13503
X17629Y31706
X17629Y32493
X17629Y33281
X17629Y34068
X15808Y34068
X15808Y33281
X15808Y32493
X15808Y31706
X13987Y31706
X13987Y32493
X13987Y33281
X13987Y34068
X12166Y34068
X12166Y33281
X12166Y32493
X12166Y31706
X3209Y15023
X3209Y14235
X3209Y13448
X3209Y12660
X24145Y41928
X24145Y42912
X24145Y43896
X24145Y51416
X24145Y52400
X24145Y53384
X16222Y64667
X15237Y64667
X14253Y64667
X6773Y64667
X5789Y64667
X4804Y64667
X4853Y55981
X4853Y55194
T07
X14824Y14103
X14824Y13103
X14824Y12103
T08
X21438Y23676
X22438Y23676
X22438Y24676
X22438Y25676
X22438Y26676
X22438Y27676
X22438Y28676
X22438Y29676
X22438Y30676
X22438Y31676
X22438Y32676
X22438Y33676
X22438Y34676
X22438Y35676
X21438Y35676
X21438Y34676
X21438Y33676
X21438Y32676
X21438Y31676
X21438Y30676
X21438Y29676
X21438Y28676
X21438Y27676
X21438Y26676
X21438Y25676
X21438Y24676
X20438Y30676
X20438Y31676
X20438Y32676
X20438Y33676
X19438Y33676
X19438Y32676
X19438Y31676
X19438Y30676
X9562Y53845
X8578Y53845
X5119Y48471
X5119Y47487
X3406Y29737
X2422Y29737
X2422Y27277
X3406Y27277
X3438Y25676
X2438Y25676
T09
X9288Y15029
X9288Y14029
X9288Y13029
X9288Y12029
X9288Y11029
X9288Y10029
X9288Y9029
X9288Y8029
X10288Y8029
X10288Y9029
X10288Y10029
X10288Y11029
X10288Y12029
X10288Y13029
X10288Y14029
X10288Y15029
X11288Y15029
X11288Y14029
X11288Y13029
X11288Y12029
X11288Y11029
X11288Y10029
X11288Y9029
X11288Y8029
X19721Y5336
X19721Y4336
X20721Y4336
X20721Y5336
X21721Y5336
X21721Y4336
X22721Y4336
X22721Y5336
X28898Y8414
X28898Y9414
X28898Y10414
X28898Y19706
X28898Y20706
X28898Y21706
X26591Y29032
X26591Y30032
X26591Y31032
X30198Y40418
X30198Y41418
X31198Y41318
X31198Y40318
X32198Y40418
X32198Y41418
X38335Y35279
X38335Y34279
X38335Y33279
X39335Y33279
X39335Y34279
X39335Y35279
X39032Y27889
X39032Y26889
X38032Y26889
X37032Y26889
X37032Y27889
X38032Y27889
X38032Y14503
X37032Y14503
X37032Y13503
X38032Y13503
X39032Y13503
X39032Y14503
X18532Y41912
X18532Y42912
X18532Y43912
X17532Y43912
X17532Y42912
X17532Y41912
X17532Y51401
X17532Y52401
X17532Y53401
X18532Y53401
X18532Y52401
X18532Y51401
X16237Y58054
X15237Y58054
X15237Y59054
X16237Y59054
X14237Y59054
X14237Y58054
X6788Y58054
X5788Y58054
X5788Y59054
X6788Y59054
X4788Y59054
X4788Y58054
X12298Y29147
X13298Y29147
X13298Y28147
X13298Y27147
X12298Y27147
X12298Y28147
X13298Y25849
X14298Y25849
X15759Y25849
X16759Y25849
X17038Y27147
X17038Y28147
X17038Y29147
X16038Y29147
X16038Y28147
X16038Y27147
X15070Y23635
X15070Y22635
X32213Y62257
X32213Y63257
X33213Y63357
X33213Y62357
X34213Y62257
X34213Y63257
T10
X35867Y25414
X37867Y18414
X33867Y18414
X35867Y12029
X37867Y5029
X33867Y5029
T11
X15040Y55538
X2442Y55538
X2442Y42940
T12
X4231Y35325
X2760Y33694
T13
X4241Y32443
X15040Y42940
M30
