G75*
G70*
%OFA0B0*%
%FSLAX24Y24*%
%IPPOS*%
%LPD*%
%AMOC8*
5,1,8,0,0,1.08239X$1,22.5*
%
%ADD10C,0.0079*%
%ADD11R,0.0433X0.0394*%
%ADD12R,0.0551X0.0394*%
%ADD13R,0.0394X0.0433*%
%ADD14R,0.0394X0.0551*%
D10*
X001457Y011523D02*
X001457Y065460D01*
X019568Y065460D01*
X019568Y056719D01*
X025709Y056719D01*
X025709Y064279D01*
X038702Y064279D01*
X038702Y038609D01*
X039804Y038609D01*
X039804Y003176D01*
X016300Y003176D01*
X016300Y007074D01*
X010670Y007074D01*
X010670Y003176D01*
X008544Y003176D01*
X008544Y011523D01*
X001457Y011523D01*
D11*
X019863Y042322D03*
X020532Y042322D03*
X020532Y043503D03*
X019863Y043503D03*
X020650Y046259D03*
X021320Y046259D03*
X022225Y043503D03*
X022894Y043503D03*
X022894Y042322D03*
X022225Y042322D03*
X022225Y051810D03*
X022894Y051810D03*
X022894Y052991D03*
X022225Y052991D03*
X020532Y052991D03*
X019863Y052991D03*
X019863Y051810D03*
X020532Y051810D03*
X020650Y055747D03*
X021320Y055747D03*
X033973Y034869D03*
X034642Y034869D03*
X034642Y033688D03*
X033973Y033688D03*
X035548Y030932D03*
X036217Y030932D03*
X036335Y033688D03*
X037005Y033688D03*
X037005Y034869D03*
X036335Y034869D03*
D12*
X037891Y031306D03*
X037891Y030558D03*
X037024Y030932D03*
X019843Y046259D03*
X018977Y046633D03*
X018977Y045885D03*
X018977Y055373D03*
X018977Y056121D03*
X019843Y055747D03*
D13*
X015828Y060385D03*
X015828Y061054D03*
X015828Y062747D03*
X015828Y063416D03*
X014646Y063416D03*
X014646Y062747D03*
X014646Y061054D03*
X014646Y060385D03*
X011891Y061172D03*
X011891Y061842D03*
X006379Y061054D03*
X006379Y060385D03*
X005198Y060385D03*
X005198Y061054D03*
X005198Y062747D03*
X005198Y063416D03*
X006379Y063416D03*
X006379Y062747D03*
X002442Y061842D03*
X002442Y061172D03*
D14*
X002442Y060365D03*
X002816Y059499D03*
X002068Y059499D03*
X011517Y059499D03*
X012265Y059499D03*
X011891Y060365D03*
M02*
