G75*
G70*
%OFA0B0*%
%FSLAX24Y24*%
%IPPOS*%
%LPD*%
%AMOC8*
5,1,8,0,0,1.08239X$1,22.5*
%
%ADD10C,0.0787*%
%ADD11C,0.0079*%
%ADD12C,0.0236*%
%ADD13R,0.0591X0.0591*%
%ADD14C,0.0660*%
%ADD15C,0.0591*%
%ADD16C,0.1142*%
%ADD17C,0.0540*%
%ADD18C,0.1890*%
%ADD19C,0.1770*%
%ADD20OC8,0.0600*%
%ADD21OC8,0.0660*%
%ADD22OC8,0.0740*%
%ADD23C,0.0740*%
%ADD24C,0.0472*%
%ADD25R,0.0433X0.0394*%
%ADD26C,0.0413*%
%ADD27C,0.0480*%
%ADD28R,0.0551X0.0394*%
%ADD29OC8,0.1000*%
%ADD30C,0.0354*%
%ADD31R,0.0394X0.0433*%
%ADD32R,0.0394X0.0551*%
%ADD33C,0.1654*%
D10*
X018032Y039566D03*
X018032Y046259D03*
X018032Y049054D03*
X018032Y055747D03*
X018583Y058554D03*
X018583Y064460D03*
X023938Y055747D03*
X026894Y053617D03*
X026887Y050058D03*
X023938Y049054D03*
X023938Y046259D03*
X026887Y040609D03*
X023938Y039566D03*
X032930Y037625D03*
X032930Y030932D03*
X035276Y027389D03*
X038835Y030932D03*
X038835Y037625D03*
X037517Y040609D03*
X037517Y050058D03*
X037524Y053617D03*
X037524Y063066D03*
X026894Y063066D03*
X011891Y064460D03*
X009135Y064460D03*
X009135Y058554D03*
X011891Y058554D03*
X002442Y058554D03*
X002442Y064460D03*
X032914Y017546D03*
X035276Y014003D03*
X038820Y017546D03*
X038820Y004160D03*
X032914Y004160D03*
D11*
X001457Y011523D02*
X001457Y065460D01*
X019568Y065460D01*
X019568Y056719D01*
X025709Y056719D01*
X025709Y064279D01*
X038702Y064279D01*
X038702Y038609D01*
X039804Y038609D01*
X039804Y003176D01*
X016300Y003176D01*
X016300Y007074D01*
X010670Y007074D01*
X010670Y003176D01*
X008544Y003176D01*
X008544Y011523D01*
X001457Y011523D01*
D12*
X007205Y036838D03*
X007205Y037231D03*
X007599Y037231D03*
X007599Y036838D03*
X007993Y036838D03*
X007993Y037231D03*
X008387Y037231D03*
X008387Y036838D03*
X016379Y042074D03*
X016772Y042074D03*
X016772Y042468D03*
X016772Y042861D03*
X016379Y042861D03*
X016379Y042468D03*
X016379Y043255D03*
X016772Y043255D03*
X019922Y047468D03*
X019922Y047861D03*
X020316Y047861D03*
X020709Y047861D03*
X020709Y047468D03*
X020316Y047468D03*
X021103Y047468D03*
X021103Y047861D03*
X025119Y048767D03*
X025119Y049160D03*
X025513Y049160D03*
X025513Y048767D03*
X025513Y049554D03*
X025513Y049948D03*
X025119Y049948D03*
X025119Y049554D03*
X025119Y054003D03*
X025513Y054003D03*
X025513Y054397D03*
X025513Y054790D03*
X025513Y055184D03*
X025119Y055184D03*
X025119Y054790D03*
X025119Y054397D03*
X031339Y052231D03*
X031733Y052231D03*
X032127Y052231D03*
X032520Y052231D03*
X032520Y051444D03*
X032127Y051444D03*
X031733Y051444D03*
X031339Y051444D03*
X025513Y043649D03*
X025513Y043255D03*
X025513Y042861D03*
X025513Y042468D03*
X025119Y042468D03*
X025119Y042861D03*
X025119Y043255D03*
X025119Y043649D03*
X028268Y039239D03*
X028268Y038845D03*
X028662Y038845D03*
X029056Y038845D03*
X029450Y038845D03*
X029450Y039239D03*
X029056Y039239D03*
X028662Y039239D03*
X028465Y036877D03*
X028465Y036483D03*
X028859Y036483D03*
X029253Y036483D03*
X029646Y036483D03*
X029646Y036877D03*
X029253Y036877D03*
X028859Y036877D03*
X031339Y033294D03*
X031339Y032901D03*
X031733Y032901D03*
X031733Y033294D03*
X031733Y032507D03*
X031339Y032507D03*
X031339Y032113D03*
X031733Y032113D03*
X034804Y029751D03*
X035198Y029751D03*
X035591Y029751D03*
X035591Y029357D03*
X035198Y029357D03*
X034804Y029357D03*
X035985Y029357D03*
X035985Y029751D03*
X031694Y020971D03*
X031694Y020578D03*
X031694Y020184D03*
X031694Y019790D03*
X031300Y019790D03*
X031300Y020184D03*
X031300Y020578D03*
X031300Y020971D03*
X028229Y025184D03*
X027835Y025184D03*
X027442Y025184D03*
X027442Y025578D03*
X027835Y025578D03*
X028229Y025578D03*
X027048Y025578D03*
X027048Y025184D03*
X024095Y023058D03*
X023702Y023058D03*
X023702Y022664D03*
X024095Y022664D03*
X024095Y022271D03*
X023702Y022271D03*
X023702Y021877D03*
X024095Y021877D03*
X026772Y014279D03*
X027166Y014279D03*
X027560Y014279D03*
X027954Y014279D03*
X027954Y013885D03*
X027560Y013885D03*
X027166Y013885D03*
X026772Y013885D03*
X024135Y009239D03*
X024135Y008845D03*
X024135Y008452D03*
X024135Y008058D03*
X023741Y008058D03*
X023741Y008452D03*
X023741Y008845D03*
X023741Y009239D03*
X031339Y008924D03*
X031339Y008531D03*
X031733Y008531D03*
X031733Y008924D03*
X031733Y008137D03*
X031339Y008137D03*
X031339Y007743D03*
X031733Y007743D03*
X035237Y015971D03*
X035631Y015971D03*
X036024Y015971D03*
X036418Y015971D03*
X036418Y016365D03*
X036024Y016365D03*
X035631Y016365D03*
X035237Y016365D03*
X024135Y030538D03*
X023741Y030538D03*
X023741Y030932D03*
X024135Y030932D03*
X024135Y031326D03*
X024135Y031719D03*
X023741Y031719D03*
X023741Y031326D03*
X021182Y036838D03*
X020788Y036838D03*
X020394Y036838D03*
X020001Y036838D03*
X020040Y038334D03*
X020434Y038334D03*
X020828Y038334D03*
X021221Y038334D03*
X016772Y051405D03*
X016772Y051798D03*
X016379Y051798D03*
X016379Y051405D03*
X016379Y052192D03*
X016772Y052192D03*
X016772Y052586D03*
X016379Y052586D03*
X014765Y056956D03*
X014765Y057349D03*
X014371Y057349D03*
X014371Y056956D03*
X013977Y056956D03*
X013977Y057349D03*
X013583Y057349D03*
X013583Y056956D03*
X010709Y060342D03*
X010709Y060735D03*
X010316Y060735D03*
X010316Y060342D03*
X010316Y061129D03*
X010709Y061129D03*
X010709Y061523D03*
X010316Y061523D03*
X010316Y061916D03*
X010709Y061916D03*
X007087Y057349D03*
X007087Y056956D03*
X006694Y056956D03*
X006694Y057349D03*
X006300Y057349D03*
X006300Y056956D03*
X005906Y056956D03*
X005906Y057349D03*
X034725Y039200D03*
X035119Y039200D03*
X035513Y039200D03*
X035906Y039200D03*
X035906Y038806D03*
X035513Y038806D03*
X035119Y038806D03*
X034725Y038806D03*
D13*
X021438Y035676D03*
D14*
X022438Y035676D03*
X022438Y033676D03*
X020438Y033676D03*
X024869Y033308D03*
X025263Y034983D03*
X025816Y034180D03*
X026119Y035521D03*
X026119Y032521D03*
X027263Y031914D03*
X028119Y031521D03*
X029619Y030521D03*
X030619Y029521D03*
X027869Y028271D03*
X027513Y029021D03*
X026119Y026861D03*
X025459Y027521D03*
X025066Y026468D03*
X027621Y022468D03*
X027977Y021718D03*
X029371Y023877D03*
X030030Y023218D03*
X030424Y024271D03*
X028227Y018824D03*
X027371Y019218D03*
X025871Y020218D03*
X024871Y021218D03*
X029371Y018218D03*
X029674Y016558D03*
X030227Y015755D03*
X029371Y015218D03*
X030424Y012979D03*
X030030Y011926D03*
X029371Y012586D03*
X027977Y010426D03*
X027621Y011176D03*
X025871Y008926D03*
X024871Y009926D03*
X027371Y007926D03*
X028227Y007532D03*
X029371Y006926D03*
X030621Y006139D03*
X029674Y005267D03*
X030227Y004464D03*
X029371Y003926D03*
X030621Y017430D03*
D15*
X022438Y023676D03*
X022438Y024676D03*
X022438Y025676D03*
X022438Y026676D03*
X022438Y027676D03*
X022438Y028676D03*
X022438Y029676D03*
X022438Y030676D03*
X022438Y031676D03*
X022438Y032676D03*
X021438Y032676D03*
X021438Y033676D03*
X021438Y034676D03*
X022438Y034676D03*
X020438Y032676D03*
X020438Y031676D03*
X020438Y030676D03*
X019438Y030676D03*
X019438Y031676D03*
X019438Y032676D03*
X019438Y033676D03*
X021438Y031676D03*
X021438Y030676D03*
X021438Y029676D03*
X021438Y028676D03*
X021438Y027676D03*
X021438Y026676D03*
X021438Y025676D03*
X021438Y024676D03*
X021438Y023676D03*
X005119Y047487D03*
X005119Y048471D03*
X008578Y053845D03*
X009562Y053845D03*
X003406Y029737D03*
X002422Y029737D03*
X002422Y027277D03*
X003406Y027277D03*
X003438Y025676D03*
X002438Y025676D03*
D16*
X008556Y026582D03*
X018599Y005137D03*
D17*
X015094Y012103D02*
X014554Y012103D01*
X014554Y013103D02*
X015094Y013103D01*
X015094Y014103D02*
X014554Y014103D01*
D18*
X004241Y032443D03*
X015040Y042940D03*
D19*
X004231Y035325D03*
X002760Y033694D03*
D20*
X009288Y015029D03*
X009288Y014029D03*
X009288Y013029D03*
X009288Y012029D03*
X009288Y011029D03*
X009288Y010029D03*
X009288Y009029D03*
X009288Y008029D03*
X010288Y008029D03*
X010288Y009029D03*
X010288Y010029D03*
X010288Y011029D03*
X010288Y012029D03*
X010288Y013029D03*
X010288Y014029D03*
X010288Y015029D03*
X011288Y015029D03*
X011288Y014029D03*
X011288Y013029D03*
X011288Y012029D03*
X011288Y011029D03*
X011288Y010029D03*
X011288Y009029D03*
X011288Y008029D03*
X017532Y041912D03*
X017532Y042912D03*
X017532Y043912D03*
X018532Y043912D03*
X018532Y042912D03*
X018532Y041912D03*
X018532Y051401D03*
X018532Y052401D03*
X018532Y053401D03*
X017532Y053401D03*
X017532Y052401D03*
X017532Y051401D03*
X016237Y058054D03*
X015237Y058054D03*
X015237Y059054D03*
X016237Y059054D03*
X014237Y059054D03*
X014237Y058054D03*
X006788Y058054D03*
X005788Y058054D03*
X005788Y059054D03*
X006788Y059054D03*
X004788Y059054D03*
X004788Y058054D03*
X037032Y027889D03*
X037032Y026889D03*
X038032Y026889D03*
X038032Y027889D03*
X039032Y027889D03*
X039032Y026889D03*
X039335Y033279D03*
X039335Y034279D03*
X039335Y035279D03*
X038335Y035279D03*
X038335Y034279D03*
X038335Y033279D03*
X038032Y014503D03*
X037032Y014503D03*
X037032Y013503D03*
X038032Y013503D03*
X039032Y013503D03*
X039032Y014503D03*
D21*
X029871Y010607D03*
X029871Y009820D03*
X029871Y009032D03*
X029871Y008245D03*
X028052Y006426D03*
X027265Y006426D03*
X026477Y006426D03*
X025690Y006426D03*
X025690Y004426D03*
X026477Y004426D03*
X027265Y004426D03*
X028052Y004426D03*
X028052Y012426D03*
X027265Y012426D03*
X026477Y012426D03*
X025690Y012426D03*
X025690Y015718D03*
X026477Y015718D03*
X027265Y015718D03*
X028052Y015718D03*
X028052Y017718D03*
X027265Y017718D03*
X026477Y017718D03*
X025690Y017718D03*
X022648Y014678D03*
X021861Y014678D03*
X021074Y014678D03*
X020286Y014678D03*
X019499Y014678D03*
X018711Y014678D03*
X017924Y014678D03*
X017137Y014678D03*
X017137Y007788D03*
X017924Y007788D03*
X018711Y007788D03*
X019499Y007788D03*
X020286Y007788D03*
X021074Y007788D03*
X021861Y007788D03*
X022648Y007788D03*
X029871Y019536D03*
X029871Y020324D03*
X029871Y021111D03*
X029871Y021899D03*
X028052Y023718D03*
X027265Y023718D03*
X026477Y023718D03*
X025690Y023718D03*
X027438Y027021D03*
X028225Y027021D03*
X029013Y027021D03*
X029800Y027021D03*
X029800Y033021D03*
X029013Y033021D03*
X028225Y033021D03*
X027438Y033021D03*
X027438Y035021D03*
X028225Y035021D03*
X029013Y035021D03*
X029800Y035021D03*
X025619Y031202D03*
X025619Y030414D03*
X025619Y029627D03*
X025619Y028840D03*
X017629Y031706D03*
X017629Y032493D03*
X017629Y033281D03*
X017629Y034068D03*
X015808Y034068D03*
X015808Y033281D03*
X015808Y032493D03*
X015808Y031706D03*
X013987Y031706D03*
X013987Y032493D03*
X013987Y033281D03*
X013987Y034068D03*
X012166Y034068D03*
X012166Y033281D03*
X012166Y032493D03*
X012166Y031706D03*
X003209Y015023D03*
X003209Y014235D03*
X003209Y013448D03*
X003209Y012660D03*
X004853Y055194D03*
X004853Y055981D03*
D22*
X030198Y041418D03*
X030198Y040418D03*
X031198Y040318D03*
X031198Y041318D03*
X032198Y041418D03*
X032198Y040418D03*
X032213Y062257D03*
X032213Y063257D03*
X033213Y063357D03*
X033213Y062357D03*
X034213Y062257D03*
X034213Y063257D03*
X022721Y005336D03*
X022721Y004336D03*
X021721Y004336D03*
X021721Y005336D03*
X020721Y005336D03*
X020721Y004336D03*
X019721Y004336D03*
X019721Y005336D03*
D23*
X028898Y008414D03*
X028898Y009414D03*
X028898Y010414D03*
X032816Y013503D03*
X032816Y014503D03*
X028898Y019706D03*
X028898Y020706D03*
X028898Y021706D03*
X032816Y026889D03*
X032816Y027889D03*
X026591Y029032D03*
X026591Y030032D03*
X026591Y031032D03*
X017038Y029147D03*
X016038Y029147D03*
X016038Y028147D03*
X016038Y027147D03*
X017038Y027147D03*
X017038Y028147D03*
X016759Y025849D03*
X015759Y025849D03*
X014298Y025849D03*
X013298Y025849D03*
X013298Y027147D03*
X013298Y028147D03*
X013298Y029147D03*
X012298Y029147D03*
X012298Y028147D03*
X012298Y027147D03*
X015070Y023635D03*
X015070Y022635D03*
X028954Y049418D03*
X028954Y050418D03*
X028969Y053257D03*
X028969Y054257D03*
X032213Y054257D03*
X032213Y053257D03*
X032198Y050418D03*
X032198Y049418D03*
X035442Y049418D03*
X035442Y050418D03*
X035457Y053257D03*
X035457Y054257D03*
D24*
X036461Y058302D03*
X036461Y059090D03*
X036461Y059877D03*
X036461Y060664D03*
X028076Y060782D03*
X028076Y059995D03*
X028076Y059208D03*
X028076Y058420D03*
X027950Y045373D03*
X027950Y044586D03*
X027950Y043798D03*
X027950Y043011D03*
X036335Y042893D03*
X036335Y043680D03*
X036335Y044468D03*
X036335Y045255D03*
X009989Y039928D03*
X009202Y039928D03*
X008414Y039928D03*
X007627Y039928D03*
D25*
X019863Y042322D03*
X020532Y042322D03*
X020532Y043503D03*
X019863Y043503D03*
X020650Y046259D03*
X021320Y046259D03*
X022225Y043503D03*
X022894Y043503D03*
X022894Y042322D03*
X022225Y042322D03*
X022225Y051810D03*
X022894Y051810D03*
X022894Y052991D03*
X022225Y052991D03*
X020532Y052991D03*
X019863Y052991D03*
X019863Y051810D03*
X020532Y051810D03*
X020650Y055747D03*
X021320Y055747D03*
X033973Y034869D03*
X034642Y034869D03*
X034642Y033688D03*
X033973Y033688D03*
X035548Y030932D03*
X036217Y030932D03*
X036335Y033688D03*
X037005Y033688D03*
X037005Y034869D03*
X036335Y034869D03*
D26*
X036276Y036641D03*
X035489Y036641D03*
X034702Y036641D03*
X037064Y036641D03*
X037064Y031916D03*
X036276Y031916D03*
X035489Y031916D03*
X034702Y031916D03*
X022166Y040550D03*
X021379Y040550D03*
X020591Y040550D03*
X019804Y040550D03*
X019804Y045275D03*
X020591Y045275D03*
X021379Y045275D03*
X022166Y045275D03*
X022166Y050038D03*
X021379Y050038D03*
X020591Y050038D03*
X019804Y050038D03*
X019804Y054763D03*
X020591Y054763D03*
X021379Y054763D03*
X022166Y054763D03*
X017599Y060326D03*
X017599Y061113D03*
X017599Y061901D03*
X017599Y062688D03*
X012875Y062688D03*
X012875Y061901D03*
X012875Y061113D03*
X012875Y060326D03*
X008150Y060326D03*
X008150Y061113D03*
X008150Y061901D03*
X008150Y062688D03*
X003426Y062688D03*
X003426Y061901D03*
X003426Y061113D03*
X003426Y060326D03*
D27*
X004804Y064427D02*
X004804Y064907D01*
X005789Y064907D02*
X005789Y064427D01*
X006773Y064427D02*
X006773Y064907D01*
X014253Y064907D02*
X014253Y064427D01*
X015237Y064427D02*
X015237Y064907D01*
X016222Y064907D02*
X016222Y064427D01*
X023905Y053384D02*
X024385Y053384D01*
X024385Y052400D02*
X023905Y052400D01*
X023905Y051416D02*
X024385Y051416D01*
X024385Y043896D02*
X023905Y043896D01*
X023905Y042912D02*
X024385Y042912D01*
X024385Y041928D02*
X023905Y041928D01*
X032483Y035263D02*
X032963Y035263D01*
X032963Y034279D02*
X032483Y034279D01*
X032483Y033295D02*
X032963Y033295D01*
D28*
X037024Y030932D03*
X037891Y030558D03*
X037891Y031306D03*
X019843Y046259D03*
X018977Y046633D03*
X018977Y045885D03*
X018977Y055373D03*
X018977Y056121D03*
X019843Y055747D03*
D29*
X035867Y025414D03*
X037867Y018414D03*
X033867Y018414D03*
X035867Y012029D03*
X037867Y005029D03*
X033867Y005029D03*
D30*
X034538Y003914D03*
X037215Y003914D03*
X037215Y017300D03*
X034538Y017300D03*
X036532Y040019D03*
X036532Y040806D03*
X038107Y041594D03*
X035548Y045531D03*
X036139Y046712D03*
X037123Y049074D03*
X037910Y049074D03*
X037524Y054601D03*
X037524Y055389D03*
X037524Y056176D03*
X036737Y056176D03*
X036737Y055389D03*
X036737Y056964D03*
X037524Y056964D03*
X037524Y057751D03*
X037524Y058538D03*
X037524Y059326D03*
X037524Y060113D03*
X037524Y060901D03*
X037524Y061688D03*
X036540Y062869D03*
X036540Y063656D03*
X035753Y063656D03*
X035753Y062869D03*
X035556Y061885D03*
X036343Y061491D03*
X035556Y060704D03*
X034965Y060113D03*
X033784Y058735D03*
X032800Y059129D03*
X033391Y060704D03*
X031816Y060901D03*
X031422Y062082D03*
X031225Y059129D03*
X030635Y058342D03*
X030044Y059129D03*
X029454Y060507D03*
X027879Y062869D03*
X027879Y063656D03*
X026304Y062082D03*
X028863Y058145D03*
X028272Y056964D03*
X027288Y054601D03*
X026501Y054601D03*
X026887Y049074D03*
X026887Y048286D03*
X026887Y047499D03*
X027674Y047499D03*
X027674Y048286D03*
X027674Y046712D03*
X028461Y046712D03*
X028658Y045924D03*
X029249Y046712D03*
X030036Y046712D03*
X030627Y044940D03*
X031611Y044546D03*
X031020Y042971D03*
X032595Y042775D03*
X032989Y041594D03*
X033186Y044546D03*
X033776Y045334D03*
X034367Y044546D03*
X034957Y043168D03*
X032989Y045531D03*
X033776Y047696D03*
X033776Y049074D03*
X033776Y049861D03*
X033776Y050649D03*
X033784Y053027D03*
X033784Y053814D03*
X033784Y054601D03*
X033784Y055389D03*
X034375Y056964D03*
X035162Y056964D03*
X035950Y056964D03*
X035753Y057751D03*
X031422Y058145D03*
X030635Y055979D03*
X030635Y054601D03*
X030635Y053814D03*
X030635Y053027D03*
X030627Y050649D03*
X030627Y049861D03*
X030627Y049074D03*
X030627Y048286D03*
X029446Y043562D03*
X028855Y042971D03*
X028068Y042184D03*
X028855Y041790D03*
X028658Y040806D03*
X028658Y040019D03*
X027871Y040019D03*
X027871Y040806D03*
X026887Y041987D03*
X026887Y042775D03*
X026887Y043562D03*
X026887Y044349D03*
X026887Y045137D03*
X026887Y045924D03*
X026887Y046712D03*
D31*
X015828Y060385D03*
X015828Y061054D03*
X015828Y062747D03*
X015828Y063416D03*
X014646Y063416D03*
X014646Y062747D03*
X014646Y061054D03*
X014646Y060385D03*
X011891Y061172D03*
X011891Y061842D03*
X006379Y061054D03*
X006379Y060385D03*
X005198Y060385D03*
X005198Y061054D03*
X005198Y062747D03*
X005198Y063416D03*
X006379Y063416D03*
X006379Y062747D03*
X002442Y061842D03*
X002442Y061172D03*
D32*
X002442Y060365D03*
X002816Y059499D03*
X002068Y059499D03*
X011517Y059499D03*
X012265Y059499D03*
X011891Y060365D03*
D33*
X015040Y055538D03*
X002442Y055538D03*
X002442Y042940D03*
M02*
