%
M48
M72
T01C0.0236
T02C0.0354
T03C0.0787
T04C0.1142
%
T01
X7205Y36838
X7205Y37231
X7599Y37231
X7599Y36838
X7993Y36838
X7993Y37231
X8387Y37231
X8387Y36838
X16379Y42074
X16772Y42074
X16772Y42468
X16772Y42861
X16379Y42861
X16379Y42468
X16379Y43255
X16772Y43255
X19922Y47468
X19922Y47861
X20316Y47861
X20709Y47861
X20709Y47468
X20316Y47468
X21103Y47468
X21103Y47861
X25119Y48767
X25119Y49160
X25513Y49160
X25513Y48767
X25513Y49554
X25513Y49948
X25119Y49948
X25119Y49554
X25119Y54003
X25513Y54003
X25513Y54397
X25513Y54790
X25513Y55184
X25119Y55184
X25119Y54790
X25119Y54397
X31339Y52231
X31733Y52231
X32127Y52231
X32520Y52231
X32520Y51444
X32127Y51444
X31733Y51444
X31339Y51444
X25513Y43649
X25513Y43255
X25513Y42861
X25513Y42468
X25119Y42468
X25119Y42861
X25119Y43255
X25119Y43649
X28268Y39239
X28268Y38845
X28662Y38845
X29056Y38845
X29450Y38845
X29450Y39239
X29056Y39239
X28662Y39239
X28465Y36877
X28465Y36483
X28859Y36483
X29253Y36483
X29646Y36483
X29646Y36877
X29253Y36877
X28859Y36877
X31339Y33294
X31339Y32901
X31733Y32901
X31733Y33294
X31733Y32507
X31339Y32507
X31339Y32113
X31733Y32113
X34804Y29751
X35198Y29751
X35591Y29751
X35591Y29357
X35198Y29357
X34804Y29357
X35985Y29357
X35985Y29751
X31694Y20971
X31694Y20578
X31694Y20184
X31694Y19790
X31300Y19790
X31300Y20184
X31300Y20578
X31300Y20971
X28229Y25184
X27835Y25184
X27442Y25184
X27442Y25578
X27835Y25578
X28229Y25578
X27048Y25578
X27048Y25184
X24095Y23058
X23702Y23058
X23702Y22664
X24095Y22664
X24095Y22271
X23702Y22271
X23702Y21877
X24095Y21877
X26772Y14279
X27166Y14279
X27560Y14279
X27954Y14279
X27954Y13885
X27560Y13885
X27166Y13885
X26772Y13885
X24135Y9239
X24135Y8845
X24135Y8452
X24135Y8058
X23741Y8058
X23741Y8452
X23741Y8845
X23741Y9239
X31339Y8924
X31339Y8531
X31733Y8531
X31733Y8924
X31733Y8137
X31339Y8137
X31339Y7743
X31733Y7743
X35237Y15971
X35631Y15971
X36024Y15971
X36418Y15971
X36418Y16365
X36024Y16365
X35631Y16365
X35237Y16365
X24135Y30538
X23741Y30538
X23741Y30932
X24135Y30932
X24135Y31326
X24135Y31719
X23741Y31719
X23741Y31326
X21182Y36838
X20788Y36838
X20394Y36838
X20001Y36838
X20040Y38334
X20434Y38334
X20828Y38334
X21221Y38334
X16772Y51405
X16772Y51798
X16379Y51798
X16379Y51405
X16379Y52192
X16772Y52192
X16772Y52586
X16379Y52586
X14765Y56956
X14765Y57349
X14371Y57349
X14371Y56956
X13977Y56956
X13977Y57349
X13583Y57349
X13583Y56956
X10709Y60342
X10709Y60735
X10316Y60735
X10316Y60342
X10316Y61129
X10709Y61129
X10709Y61523
X10316Y61523
X10316Y61916
X10709Y61916
X7087Y57349
X7087Y56956
X6694Y56956
X6694Y57349
X6300Y57349
X6300Y56956
X5906Y56956
X5906Y57349
X34725Y39200
X35119Y39200
X35513Y39200
X35906Y39200
X35906Y38806
X35513Y38806
X35119Y38806
X34725Y38806
T02
X34538Y17300
X37215Y17300
X37215Y3914
X34538Y3914
T03
X32914Y4160
X38820Y4160
X35276Y14003
X32914Y17546
X38820Y17546
X35276Y27389
X32930Y30932
X32930Y37625
X37517Y40609
X38835Y37625
X38835Y30932
X37517Y50058
X37524Y53617
X37524Y63066
X26894Y63066
X23938Y55747
X26894Y53617
X26887Y50058
X23938Y49054
X23938Y46259
X26887Y40609
X23938Y39566
X18032Y39566
X18032Y46259
X18032Y49054
X18032Y55747
X18583Y58554
X18583Y64460
X11891Y64460
X9135Y64460
X9135Y58554
X11891Y58554
X2442Y58554
X2442Y64460
T04
X8556Y26582
X18599Y5137
M30
