G75*
G70*
%OFA0B0*%
%FSLAX24Y24*%
%IPPOS*%
%LPD*%
%AMOC8*
5,1,8,0,0,1.08239X$1,22.5*
%
%ADD10C,0.0079*%
%ADD11R,0.0140X0.0580*%
%ADD12R,0.1080X0.1080*%
%ADD13R,0.1102X0.1496*%
%ADD14R,0.0421X0.0819*%
%ADD15R,0.0580X0.0140*%
%ADD16R,0.0217X0.0472*%
%ADD17R,0.0240X0.0640*%
%ADD18R,0.1250X0.0730*%
%ADD19R,0.0433X0.0394*%
%ADD20R,0.0276X0.0276*%
%ADD21R,0.0630X0.0709*%
%ADD22R,0.0394X0.0433*%
%ADD23R,0.0472X0.0315*%
%ADD24R,0.0709X0.0630*%
%ADD25R,0.0551X0.0551*%
%ADD26R,0.0787X0.0472*%
%ADD27R,0.0315X0.0315*%
%ADD28R,0.0551X0.0630*%
%ADD29R,0.0945X0.0709*%
%ADD30R,0.0748X0.1634*%
%ADD31R,0.0177X0.0560*%
%ADD32R,0.0236X0.0866*%
%ADD33R,0.1260X0.0709*%
%ADD34R,0.0512X0.0591*%
%ADD35R,0.1634X0.0748*%
%ADD36R,0.0315X0.0551*%
%ADD37R,0.0709X0.0866*%
%ADD38R,0.0591X0.0512*%
%ADD39R,0.0240X0.0870*%
%ADD40R,0.0870X0.0240*%
%ADD41C,0.0118*%
%ADD42R,0.0472X0.1102*%
%ADD43R,0.0472X0.0551*%
D10*
X001457Y011523D02*
X001457Y065460D01*
X019568Y065460D01*
X019568Y056719D01*
X025709Y056719D01*
X025709Y064279D01*
X038702Y064279D01*
X038702Y038609D01*
X039804Y038609D01*
X039804Y003176D01*
X016300Y003176D01*
X016300Y007074D01*
X010670Y007074D01*
X010670Y003176D01*
X008544Y003176D01*
X008544Y011523D01*
X001457Y011523D01*
D11*
X007034Y032466D03*
X007294Y032466D03*
X007554Y032466D03*
X007804Y032466D03*
X008064Y032466D03*
X008314Y032466D03*
X008574Y032466D03*
X008834Y032466D03*
X008834Y034686D03*
X008574Y034686D03*
X008314Y034686D03*
X008064Y034686D03*
X007804Y034686D03*
X007554Y034686D03*
X007294Y034686D03*
X007034Y034686D03*
D12*
X007934Y033576D03*
D13*
X007704Y021229D03*
X004790Y021229D03*
D14*
X005654Y023481D03*
X006635Y023481D03*
X007615Y023481D03*
X008595Y023481D03*
X008595Y028820D03*
X007615Y028820D03*
X006635Y028820D03*
X005654Y028820D03*
D15*
G36*
X013050Y017522D02*
X013459Y017931D01*
X013558Y017832D01*
X013149Y017423D01*
X013050Y017522D01*
G37*
G36*
X013227Y017345D02*
X013636Y017754D01*
X013735Y017655D01*
X013326Y017246D01*
X013227Y017345D01*
G37*
G36*
X013411Y017161D02*
X013820Y017570D01*
X013919Y017471D01*
X013510Y017062D01*
X013411Y017161D01*
G37*
G36*
X013594Y016977D02*
X014003Y017386D01*
X014102Y017287D01*
X013693Y016878D01*
X013594Y016977D01*
G37*
G36*
X013771Y016800D02*
X014180Y017209D01*
X014279Y017110D01*
X013870Y016701D01*
X013771Y016800D01*
G37*
G36*
X013955Y016616D02*
X014364Y017025D01*
X014463Y016926D01*
X014054Y016517D01*
X013955Y016616D01*
G37*
G36*
X014132Y016440D02*
X014541Y016849D01*
X014640Y016750D01*
X014231Y016341D01*
X014132Y016440D01*
G37*
G36*
X014316Y016256D02*
X014725Y016665D01*
X014824Y016566D01*
X014415Y016157D01*
X014316Y016256D01*
G37*
G36*
X014499Y016072D02*
X014908Y016481D01*
X015007Y016382D01*
X014598Y015973D01*
X014499Y016072D01*
G37*
G36*
X014676Y015895D02*
X015085Y016304D01*
X015184Y016205D01*
X014775Y015796D01*
X014676Y015895D01*
G37*
G36*
X013050Y014269D02*
X013459Y014678D01*
X013558Y014579D01*
X013149Y014170D01*
X013050Y014269D01*
G37*
G36*
X012873Y014446D02*
X013282Y014855D01*
X013381Y014756D01*
X012972Y014347D01*
X012873Y014446D01*
G37*
G36*
X012689Y014629D02*
X013098Y015038D01*
X013197Y014939D01*
X012788Y014530D01*
X012689Y014629D01*
G37*
G36*
X012505Y014813D02*
X012914Y015222D01*
X013013Y015123D01*
X012604Y014714D01*
X012505Y014813D01*
G37*
G36*
X012329Y014990D02*
X012738Y015399D01*
X012837Y015300D01*
X012428Y014891D01*
X012329Y014990D01*
G37*
G36*
X012145Y015174D02*
X012554Y015583D01*
X012653Y015484D01*
X012244Y015075D01*
X012145Y015174D01*
G37*
G36*
X011968Y015351D02*
X012377Y015760D01*
X012476Y015661D01*
X012067Y015252D01*
X011968Y015351D01*
G37*
G36*
X011784Y015535D02*
X012193Y015944D01*
X012292Y015845D01*
X011883Y015436D01*
X011784Y015535D01*
G37*
G36*
X011600Y015718D02*
X012009Y016127D01*
X012108Y016028D01*
X011699Y015619D01*
X011600Y015718D01*
G37*
G36*
X011424Y015895D02*
X011833Y016304D01*
X011932Y016205D01*
X011523Y015796D01*
X011424Y015895D01*
G37*
D16*
X014217Y019769D03*
X014217Y020792D03*
X014591Y020792D03*
X014965Y020792D03*
X014965Y019769D03*
X006306Y044473D03*
X005558Y044473D03*
X005558Y045497D03*
X005932Y045497D03*
X006306Y045497D03*
D17*
X011168Y020782D03*
X011668Y020782D03*
X012168Y020782D03*
X012668Y020782D03*
X013168Y020782D03*
D18*
X012168Y023252D03*
D19*
X012127Y020092D03*
X012796Y020092D03*
X014194Y019156D03*
X014863Y019156D03*
G36*
X015211Y015837D02*
X015516Y016142D01*
X015795Y015863D01*
X015490Y015558D01*
X015211Y015837D01*
G37*
G36*
X014738Y015364D02*
X015043Y015669D01*
X015322Y015390D01*
X015017Y015085D01*
X014738Y015364D01*
G37*
X014501Y024716D03*
X015170Y024716D03*
X014983Y026885D03*
X014314Y026885D03*
X013815Y030061D03*
X013589Y030590D03*
X014258Y030590D03*
X013146Y030061D03*
X016521Y030041D03*
X017190Y030041D03*
X017357Y030520D03*
X018027Y030520D03*
G36*
X017920Y026963D02*
X018225Y027268D01*
X018504Y026989D01*
X018199Y026684D01*
X017920Y026963D01*
G37*
G36*
X017447Y026490D02*
X017752Y026795D01*
X018031Y026516D01*
X017726Y026211D01*
X017447Y026490D01*
G37*
X009646Y030623D03*
X009646Y031214D03*
X009646Y031804D03*
X008977Y031804D03*
X008977Y031214D03*
X008977Y030623D03*
X005365Y029639D03*
X004696Y029639D03*
X008455Y041021D03*
X009125Y041021D03*
X007534Y045727D03*
X006865Y045727D03*
X006261Y046107D03*
X005591Y046107D03*
X020650Y044487D03*
X021320Y044487D03*
X021320Y041338D03*
X020650Y041338D03*
X020650Y050826D03*
X021320Y050826D03*
X021320Y053975D03*
X020650Y053975D03*
X035548Y035853D03*
X036217Y035853D03*
X036217Y032704D03*
X035548Y032704D03*
X038784Y022397D03*
X039454Y022397D03*
X039454Y009011D03*
X038784Y009011D03*
D20*
X002454Y024107D03*
X001942Y024107D03*
X002198Y024836D03*
D21*
X001969Y031607D03*
X003072Y031607D03*
X011566Y024275D03*
X012668Y024275D03*
X028465Y047865D03*
X029568Y047865D03*
X031646Y047865D03*
X032749Y047865D03*
X033776Y046397D03*
X034879Y046397D03*
X034828Y047865D03*
X035930Y047865D03*
X035322Y041534D03*
X034219Y041534D03*
X034843Y055810D03*
X035946Y055810D03*
X032765Y055810D03*
X031662Y055810D03*
X030635Y057279D03*
X029532Y057279D03*
X029583Y055810D03*
X028481Y055810D03*
X029089Y062141D03*
X030192Y062141D03*
D22*
X016812Y061842D03*
X016812Y061172D03*
X013662Y061172D03*
X013662Y061842D03*
X007363Y061842D03*
X007363Y061172D03*
X004213Y061172D03*
X004213Y061842D03*
X006841Y045117D03*
X006841Y044448D03*
X007479Y044434D03*
X007479Y045103D03*
X007739Y036166D03*
X007739Y035497D03*
X008328Y035505D03*
X008918Y035505D03*
X008918Y036174D03*
X008328Y036174D03*
X009509Y036174D03*
X009509Y035505D03*
X009410Y034403D03*
X009410Y033733D03*
X009410Y033123D03*
X009410Y032454D03*
X019152Y034513D03*
X019152Y035182D03*
X027371Y021052D03*
X027371Y020383D03*
X027977Y020383D03*
X027977Y021052D03*
X032910Y025141D03*
X032910Y025810D03*
X036658Y023019D03*
X036658Y022349D03*
X036650Y020739D03*
X036650Y020070D03*
X032910Y012424D03*
X032910Y011755D03*
X036658Y009633D03*
X036658Y008964D03*
X036650Y007353D03*
X036650Y006684D03*
X027977Y009092D03*
X027977Y009761D03*
X027371Y009761D03*
X027371Y009092D03*
X027513Y029686D03*
X028119Y029686D03*
X028119Y030355D03*
X027513Y030355D03*
X013052Y012995D03*
X013052Y012326D03*
D23*
X006802Y029580D03*
X006802Y030288D03*
X008229Y030958D03*
X008229Y031666D03*
D24*
X006457Y032139D03*
X006457Y033241D03*
X006064Y030879D03*
X006064Y029777D03*
X006804Y019420D03*
X006804Y018318D03*
X029780Y044477D03*
X029780Y045580D03*
X034631Y058095D03*
X034631Y059198D03*
D25*
G36*
X008012Y029781D02*
X007624Y030169D01*
X008012Y030557D01*
X008400Y030169D01*
X008012Y029781D01*
G37*
G36*
X006954Y030839D02*
X006566Y031227D01*
X006954Y031615D01*
X007342Y031227D01*
X006954Y030839D01*
G37*
D26*
X008967Y022149D03*
X008967Y020889D03*
X010148Y020889D03*
X010148Y022149D03*
D27*
X002995Y024176D03*
X002995Y024767D03*
D28*
X003702Y022975D03*
X003702Y019668D03*
X002816Y019668D03*
X001930Y019668D03*
X001930Y022975D03*
D29*
X011280Y019265D03*
X011280Y017670D03*
D30*
X008967Y016893D03*
X008967Y019649D03*
D31*
X014300Y027589D03*
X014556Y027589D03*
X014812Y027589D03*
X015067Y027589D03*
X015067Y029329D03*
X014812Y029329D03*
X014552Y029329D03*
X014300Y029329D03*
X018117Y029428D03*
X018369Y029428D03*
X018629Y029428D03*
X018885Y029428D03*
X018885Y027688D03*
X018629Y027688D03*
X018373Y027688D03*
X018117Y027688D03*
D32*
X009558Y042405D03*
X009058Y042405D03*
X008558Y042405D03*
X008058Y042405D03*
X008058Y044452D03*
X008558Y044452D03*
X009058Y044452D03*
X009558Y044452D03*
X009560Y045574D03*
X009060Y045574D03*
X008560Y045574D03*
X008060Y045574D03*
X008060Y048605D03*
X008560Y048605D03*
X009060Y048605D03*
X009560Y048605D03*
D33*
X009076Y049765D03*
X009076Y051969D03*
D34*
X007278Y048536D03*
X006530Y048536D03*
D35*
X006485Y051141D03*
X003729Y051141D03*
D36*
X005887Y053282D03*
X006477Y053282D03*
X007068Y053282D03*
D37*
X006477Y054495D03*
D38*
X005198Y053993D03*
X005198Y053245D03*
D39*
X005038Y060177D03*
X005538Y060177D03*
X006038Y060177D03*
X006538Y060177D03*
X006538Y062827D03*
X006038Y062827D03*
X005538Y062827D03*
X005038Y062827D03*
X014487Y062827D03*
X014987Y062827D03*
X015487Y062827D03*
X015987Y062827D03*
X015987Y060177D03*
X015487Y060177D03*
X014987Y060177D03*
X014487Y060177D03*
X031251Y046392D03*
X031751Y046392D03*
X032251Y046392D03*
X032751Y046392D03*
X032751Y043742D03*
X032251Y043742D03*
X031751Y043742D03*
X031251Y043742D03*
X030369Y031341D03*
X029869Y031341D03*
X029369Y031341D03*
X028869Y031341D03*
X028869Y028691D03*
X029369Y028691D03*
X029869Y028691D03*
X030369Y028691D03*
X034137Y022782D03*
X034637Y022782D03*
X035137Y022782D03*
X035637Y022782D03*
X035637Y020132D03*
X035137Y020132D03*
X034637Y020132D03*
X034137Y020132D03*
X034137Y009396D03*
X034637Y009396D03*
X035137Y009396D03*
X035637Y009396D03*
X035637Y006746D03*
X035137Y006746D03*
X034637Y006746D03*
X034137Y006746D03*
X026621Y008106D03*
X026121Y008106D03*
X025621Y008106D03*
X025121Y008106D03*
X025121Y010756D03*
X025621Y010756D03*
X026121Y010756D03*
X026621Y010756D03*
X026621Y019398D03*
X026121Y019398D03*
X025621Y019398D03*
X025121Y019398D03*
X025121Y022048D03*
X025621Y022048D03*
X026121Y022048D03*
X026621Y022048D03*
X031660Y057283D03*
X032160Y057283D03*
X032660Y057283D03*
X033160Y057283D03*
X033160Y059933D03*
X032660Y059933D03*
X032160Y059933D03*
X031660Y059933D03*
D40*
X022305Y053151D03*
X022305Y052651D03*
X022305Y052151D03*
X022305Y051651D03*
X019655Y051651D03*
X019655Y052151D03*
X019655Y052651D03*
X019655Y053151D03*
X019655Y043662D03*
X019655Y043162D03*
X019655Y042662D03*
X019655Y042162D03*
X022305Y042162D03*
X022305Y042662D03*
X022305Y043162D03*
X022305Y043662D03*
X034563Y035029D03*
X034563Y034529D03*
X034563Y034029D03*
X034563Y033529D03*
X037213Y033529D03*
X037213Y034029D03*
X037213Y034529D03*
X037213Y035029D03*
D41*
X032379Y036237D02*
X032103Y036237D01*
X032379Y036237D02*
X032379Y035961D01*
X032103Y035961D01*
X032103Y036237D01*
X032103Y036078D02*
X032379Y036078D01*
X032379Y036195D02*
X032103Y036195D01*
X032103Y036927D02*
X032379Y036927D01*
X032379Y036651D01*
X032103Y036651D01*
X032103Y036927D01*
X032103Y036768D02*
X032379Y036768D01*
X032379Y036885D02*
X032103Y036885D01*
X024765Y040264D02*
X024489Y040264D01*
X024489Y040540D01*
X024765Y040540D01*
X024765Y040264D01*
X024765Y040381D02*
X024489Y040381D01*
X024489Y040498D02*
X024765Y040498D01*
X024765Y040954D02*
X024489Y040954D01*
X024489Y041230D01*
X024765Y041230D01*
X024765Y040954D01*
X024765Y041071D02*
X024489Y041071D01*
X024489Y041188D02*
X024765Y041188D01*
X024765Y049752D02*
X024489Y049752D01*
X024489Y050028D01*
X024765Y050028D01*
X024765Y049752D01*
X024765Y049869D02*
X024489Y049869D01*
X024489Y049986D02*
X024765Y049986D01*
X024765Y050443D02*
X024489Y050443D01*
X024489Y050719D01*
X024765Y050719D01*
X024765Y050443D01*
X024765Y050560D02*
X024489Y050560D01*
X024489Y050677D02*
X024765Y050677D01*
X017886Y065011D02*
X017886Y065287D01*
X017886Y065011D02*
X017610Y065011D01*
X017610Y065287D01*
X017886Y065287D01*
X017886Y065128D02*
X017610Y065128D01*
X017610Y065245D02*
X017886Y065245D01*
X017195Y065287D02*
X017195Y065011D01*
X016919Y065011D01*
X016919Y065287D01*
X017195Y065287D01*
X017195Y065128D02*
X016919Y065128D01*
X016919Y065245D02*
X017195Y065245D01*
X008437Y065287D02*
X008437Y065011D01*
X008161Y065011D01*
X008161Y065287D01*
X008437Y065287D01*
X008437Y065128D02*
X008161Y065128D01*
X008161Y065245D02*
X008437Y065245D01*
X007746Y065287D02*
X007746Y065011D01*
X007470Y065011D01*
X007470Y065287D01*
X007746Y065287D01*
X007746Y065128D02*
X007470Y065128D01*
X007470Y065245D02*
X007746Y065245D01*
X039319Y020580D02*
X039595Y020580D01*
X039319Y020580D02*
X039319Y020856D01*
X039595Y020856D01*
X039595Y020580D01*
X039595Y020697D02*
X039319Y020697D01*
X039319Y020814D02*
X039595Y020814D01*
X039595Y019890D02*
X039319Y019890D01*
X039319Y020166D01*
X039595Y020166D01*
X039595Y019890D01*
X039595Y020007D02*
X039319Y020007D01*
X039319Y020124D02*
X039595Y020124D01*
X039595Y007194D02*
X039319Y007194D01*
X039319Y007470D01*
X039595Y007470D01*
X039595Y007194D01*
X039595Y007311D02*
X039319Y007311D01*
X039319Y007428D02*
X039595Y007428D01*
X039595Y006504D02*
X039319Y006504D01*
X039319Y006780D01*
X039595Y006780D01*
X039595Y006504D01*
X039595Y006621D02*
X039319Y006621D01*
X039319Y006738D02*
X039595Y006738D01*
D42*
X036861Y005056D03*
X035877Y005056D03*
X034892Y005056D03*
X034892Y018442D03*
X035877Y018442D03*
X036861Y018442D03*
D43*
X035426Y040471D03*
X034245Y040471D03*
X030166Y063204D03*
X028985Y063204D03*
M02*
